          <svg xmlns="http://www.w3.org/2000/svg" viewBox="0 0 16.353896 285.75079" preserveAspectRatio="xMidYMid meet" version="1.1" id="svg-line4">
            <g id="layer-line4" transform="translate(-59.570075,-11.250221)">
              <path d="m 67.704466,11.250221 c 0,7.802563 -0.0677,41.833602 -0.0709,112.334479 0,3.13002 -1.45838,6.08541 -3.9452,7.99041 -5.04746,3.86557 -5.05037,10.19705 -0.007,14.0679 l 2.84506,2.18281 2.83845,2.17752 c 5.04243,3.87086 5.04243,10.19969 0,14.07054 l -2.83845,2.17753 -2.83924,2.18016 c -5.04137,3.86821 -5.04137,10.19969 0,14.0679 l 2.83924,2.18016 2.83845,2.18017 c 5.04243,3.86821 5.04243,10.19969 0,14.0679 -1.04934,0.80698 -1.66661,2.05581 -1.66661,3.37873 -0.0097,142.98409 0.04506,31.50701 0.04881,92.69455" id="path-line4" style="fill: none; stroke: rgb(226, 9, 83); stroke-width: 0.661458; stroke-dasharray: 315.657, 315.657; stroke-dashoffset: 0px;"></path>
            </g>
          </svg>