<svg width="154" height="1688" viewBox="0 0 154 1688" fill="none" xmlns="http://www.w3.org/2000/svg">
<path d="M47.6705 2.17456C49.0916 2.30615 52.1009 2.80356 52.9666 3.97531C57.5591 10.1913 58.0329 23.1152 58.6969 29.8289C60.1526 44.5484 59.0524 57.8922 57.4958 72.4038C54.5156 100.187 88.6573 100.45 100.082 80.0891C100.418 79.49 102.811 69.5413 100.154 71.214C92.1479 76.2551 89.2104 97.4545 87.1165 105.267C79.1469 135.006 72.2132 164.85 66.3951 195.08C63.9149 207.967 62.1967 227.029 52.0695 236.851C48.4558 240.356 45.8144 235.962 45.5289 232.413C44.8876 224.444 51.8229 216.116 57.9589 211.93C67.6031 205.35 77.7446 208.935 87.898 212.283C91.8843 213.598 109.739 221.539 113.178 216.785C117.421 210.918 102.719 213.31 101.211 214.148C75.948 228.183 67.1442 268.93 63.6457 294.7C61.9893 306.901 63.0803 319.213 61.2726 331.39C60.1275 339.104 58.1009 353.453 50.7093 358.401C47.2199 360.737 40.4938 357.723 41.5785 353.128C43.3545 345.604 56.0138 341.346 62.1842 339.558C76.1465 335.511 90.8922 336.333 105.262 335.699C107.198 335.614 118.192 332.652 113.091 333.545C99.9342 335.847 90.3364 355.798 85.7853 366.183C71.6377 398.468 70.643 434.293 67.2633 468.826C64.7456 494.551 64.0249 528.113 49.378 550.503C47.244 553.765 43.6254 558.225 39.6684 559.474C33.3892 561.457 33.4195 549.708 33.3883 546.644C33.2173 529.852 38.2336 519.293 54.6452 515.002C73.5883 510.05 92.2064 504.358 110.848 498.345C121.783 494.818 147.245 490.709 151.596 477.251C155.423 465.415 137.077 469.422 132.553 473.135C125.626 478.82 120.734 486.99 116.564 494.744C106.726 513.035 99.7513 532.823 93.6716 552.625C75.8615 610.635 67.2687 677.276 21.349 721.574C12.6938 729.924 0.129727 728.161 2.0601 713.792C4.12651 698.411 14.9828 688.742 30.147 687.746C44.7887 686.784 59.5763 689.709 74.0933 691.122C77.8853 691.491 91.8948 694.981 94.8437 689.804C95.7729 688.172 93.988 687.723 92.76 687.939C86.9651 688.955 82.4227 694.343 79.6209 699.097C67.6134 719.471 66.9229 748.653 64.2245 771.352C60.0177 806.74 56.8436 842.003 48.7992 876.824C43.4996 899.765 38.1014 924.271 28.3237 945.864C26.2957 950.342 22.4837 955.185 17.7314 950.752C8.00504 941.677 23.325 928.07 30.6534 924.03C51.8458 912.346 78.1957 912.372 101.428 908.048C112.612 905.966 139.29 901.879 140.628 886.503C141.46 876.933 129.074 873.463 122.395 878.303C115.94 882.982 111.872 891.163 108.402 898.015C101.389 911.868 97.0583 926.339 94.0044 941.523C86.638 978.148 84.2917 1016.06 72.7041 1051.75C66.2279 1071.7 57.4742 1100.25 39.7263 1113.59C29.7407 1121.1 28.0081 1107.66 33.1134 1101.27C45.7609 1085.45 68.8403 1084.25 87.3046 1082.85C95.0935 1082.26 123.492 1084.44 125.926 1072.66C127.555 1064.77 115.122 1068.54 112.411 1070.53C91.8651 1085.61 90.2069 1121.98 86.5088 1144.49C78.9251 1190.65 73.4533 1237.44 51.9827 1279.74C48.7282 1286.15 30 1316.99 20.5387 1298.87C12.4721 1283.43 32.5729 1270.37 44.8633 1267.07C66.2212 1261.34 89.1566 1264.59 110.038 1256.53C111.978 1255.78 131.272 1247.08 123.842 1241.99C112.63 1234.31 103.369 1268.64 102.325 1272.86C95.2384 1301.48 93.256 1331.92 92.2101 1361.29C91.5623 1379.48 91.7363 1397.77 89.7791 1415.89C88.1024 1431.41 85.6632 1450.85 74.6721 1463.1C66.2698 1472.46 50.2427 1469.89 44.241 1459.14C36.172 1444.69 79.8102 1435.59 86.5667 1433.77C105.451 1428.69 142.559 1425.75 150.989 1403.67C154.868 1393.51 143.538 1388.59 135.332 1392.93C129.014 1396.27 124.79 1403.5 121.845 1409.62C112.994 1428.01 112.214 1448.21 111.846 1468.24C110.512 1540.97 107.582 1613.32 103.15 1685.94" stroke="#F24F14" stroke-width="3" stroke-linecap="round"/>
</svg>
