<svg width="87" height="953" viewBox="0 0 87 953" fill="none" xmlns="http://www.w3.org/2000/svg">
<path d="M58.2176 2.18567C51.1721 16.193 44.9713 31.4654 41.6904 47.0046C38.4742 62.2369 39.7163 76.1339 41.7901 91.3062C43.8061 106.055 46.9713 120.575 49.4718 135.238C52.3877 152.338 53.0817 169.599 53.0632 186.93C53.0251 222.641 54.21 258.25 41.441 292.086C36.191 305.998 27.8787 317.795 17.7642 328.628C10.8307 336.055 1.7122 336.045 2.71679 323.492C3.14559 318.134 5.57017 310.4 9.89961 306.829C13.9981 303.447 17.5493 309.152 19.7262 312.038C23.704 317.313 28.5254 323.858 31.6976 329.7C38.9617 343.078 42.0373 357.567 47.4766 371.563C50.8798 380.32 63.6443 385.931 71.6355 380.098C81.8421 372.649 70.7003 358.233 65.0513 374.186C59.9452 388.606 55.2797 403.367 51.5169 418.192C45.4488 442.101 43.3251 467.376 34.1251 490.39C29.0436 503.102 20.8691 519.755 8.56947 527.191C-0.440894 532.639 0.597713 519.352 4.64551 514.998C7.92734 511.468 15.8116 502.314 20.5409 509.012C27.4753 518.834 31.8754 531.413 35.9042 542.525C41.4061 557.7 43.6994 573.607 45.9136 589.524C47.9002 603.805 47.7717 620.369 57.6523 631.904C61.9269 636.895 69.1509 644.057 75.9087 639.072C80.2389 635.878 83.6782 633.078 84.4549 627.507C84.8892 624.392 84.976 620.322 83.6568 617.346C81.507 612.497 75.1774 628.04 74.5951 629.207C64.7861 648.872 64.1005 672.91 64.6023 694.606C65.0945 715.886 65.6186 737.176 66.1819 758.454C66.9236 786.472 68.3549 814.568 66.8802 842.586C64.9342 879.561 57.3972 915.209 49.5383 951.253" stroke="#FB4242" stroke-width="3" stroke-linecap="round"/>
</svg>
